<svg width="72" height="72" viewBox="0 0 72 72" fill="none" xmlns="http://www.w3.org/2000/svg">
<g clip-path="url(#clip0_1026_7376)">
<path d="M8.86747 24.2627H9.50774C11.7306 24.311 13.9171 25.2041 15.4876 26.7851C14.9077 27.3765 14.3158 27.9437 13.748 28.5351C12.8661 27.7386 11.803 27.123 10.6433 26.9058C8.92787 26.5437 7.07955 26.8696 5.64196 27.8472C4.07149 28.873 3.00841 30.611 2.77888 32.4696C2.52518 34.3041 3.04465 36.2351 4.24062 37.6592C5.38827 39.0472 7.13995 39.9161 8.95203 39.9765C10.6433 40.073 12.4071 39.5541 13.6393 38.3713C14.6057 37.5385 15.0527 36.2713 15.1977 35.0403C13.1923 35.0403 11.1869 35.0523 9.18156 35.0403V32.5541H17.6259C18.0608 35.2213 17.4326 38.2265 15.403 40.1334C14.05 41.4851 12.1775 42.2816 10.2688 42.4385C8.42049 42.6196 6.51176 42.2696 4.86881 41.3765C2.89968 40.3265 1.32921 38.5523 0.556056 36.4644C-0.168776 34.5454 -0.180857 32.373 0.495654 30.442C1.11176 28.6799 2.29565 27.123 3.8178 26.0368C5.27955 24.9627 7.05539 24.3713 8.86747 24.2627Z" fill="white"/>
<path d="M57.3105 24.8906H59.8958V42.1251C59.0381 42.1251 58.1683 42.1371 57.3105 42.113C57.3226 36.3803 57.3105 30.6354 57.3105 24.8906Z" fill="white"/>
<path d="M23.3763 30.8649C24.9709 30.5631 26.6984 30.9011 28.0152 31.8545C29.2112 32.6994 30.0447 34.0269 30.2984 35.4752C30.6246 37.1528 30.2138 38.9873 29.1266 40.3149C27.9548 41.7993 26.034 42.5959 24.1615 42.4752C22.4461 42.3786 20.7789 41.5218 19.7642 40.1218C18.6165 38.5769 18.3387 36.4528 18.9669 34.6425C19.595 32.6994 21.3709 31.2149 23.3763 30.8649ZM23.7387 33.158C23.0863 33.3269 22.4823 33.7011 22.0474 34.2321C20.8756 35.6321 20.9481 37.9131 22.2407 39.2166C22.9776 39.9649 24.089 40.3149 25.1158 40.1097C26.0702 39.9407 26.9038 39.3011 27.3628 38.4562C28.1601 37.02 27.9306 35.0407 26.7105 33.9183C25.9252 33.1942 24.7776 32.8925 23.7387 33.158Z" fill="white"/>
<path d="M36.181 30.8648C38.0052 30.5148 39.9985 31.0217 41.3636 32.301C43.5864 34.2924 43.828 38.0217 41.9314 40.3148C40.7837 41.763 38.9233 42.5596 37.0871 42.4751C35.3354 42.4268 33.6079 41.5579 32.569 40.1217C31.3972 38.5406 31.1435 36.3682 31.8079 34.5217C32.4723 32.6389 34.2119 31.2027 36.181 30.8648ZM36.5435 33.1579C35.8911 33.3268 35.2871 33.701 34.8522 34.22C33.6925 35.5958 33.7408 37.8406 34.9851 39.1561C35.722 39.9406 36.8696 40.3268 37.9327 40.1096C38.875 39.9286 39.7206 39.301 40.1797 38.4562C40.9649 37.0079 40.7354 35.0286 39.5032 33.9062C38.718 33.182 37.5703 32.8924 36.5435 33.1579Z" fill="white"/>
<path d="M47.0425 31.5642C48.4317 30.6952 50.2801 30.4538 51.778 31.2021C52.2492 31.4073 52.6358 31.7573 53.0103 32.1073C53.0223 31.7814 53.0103 31.4435 53.0223 31.1056C53.8317 31.1176 54.6411 31.1056 55.4626 31.1176V41.7624C55.4505 43.3676 55.0398 45.0693 53.88 46.24C52.6116 47.5314 50.6666 47.9297 48.9149 47.6642C47.0425 47.3866 45.4116 46.0228 44.6868 44.2969C45.4116 43.9469 46.1727 43.6693 46.9217 43.3435C47.3445 44.3331 48.2022 45.178 49.2774 45.3711C50.3525 45.5642 51.5968 45.2986 52.2975 44.4055C53.0465 43.4883 53.0465 42.2331 53.0103 41.1107C52.4545 41.6538 51.8143 42.1366 51.0411 42.3176C49.3619 42.7883 47.5136 42.209 46.221 41.0745C44.9163 39.94 44.1431 38.19 44.2156 36.4521C44.2519 34.4849 45.3633 32.59 47.0425 31.5642ZM49.5431 33.109C48.8062 33.2297 48.1176 33.64 47.6465 34.2073C46.5109 35.559 46.5109 37.7193 47.6586 39.0469C48.3109 39.8314 49.3619 40.2659 50.3767 40.1573C51.3311 40.0607 52.2129 39.4573 52.6841 38.6245C53.4814 37.2125 53.3485 35.2935 52.2733 34.0625C51.6089 33.3021 50.5458 32.928 49.5431 33.109Z" fill="white"/>
<path d="M62.9996 32.1804C64.4493 30.8287 66.6842 30.3701 68.5446 31.0821C70.3084 31.7459 71.4319 33.4235 71.9997 35.1494C69.3782 36.2356 66.7688 37.3097 64.1473 38.3959C64.5097 39.0838 65.0654 39.7114 65.8144 39.9649C66.8654 40.339 68.1218 40.2062 69.0037 39.5062C69.354 39.2407 69.6319 38.8907 69.8976 38.5528C70.5621 38.9993 71.2265 39.4338 71.8909 39.8804C70.9486 41.2924 69.3661 42.2821 67.6627 42.439C65.7782 42.6683 63.7728 41.9442 62.5526 40.4718C60.5473 38.1545 60.7406 34.2683 62.9996 32.1804ZM64.2923 34.4132C63.8815 35.0045 63.7124 35.7287 63.7245 36.4407C65.4761 35.7166 67.2278 34.9925 68.9795 34.2563C68.6896 33.5804 67.9889 33.17 67.2762 33.0614C66.1285 32.8563 64.9325 33.4718 64.2923 34.4132Z" fill="white"/>
</g>
<defs>
<clipPath id="clip0_1026_7376">
<rect width="72" height="72" fill="white"/>
</clipPath>
</defs>
</svg>
