<svg width="24" height="24" viewBox="0 0 24 24" fill="none" xmlns="http://www.w3.org/2000/svg">
<g clip-path="url(#clip0_1_11983)">
<path d="M25.0257 8.00337C24.95 7.92774 24.8474 7.88525 24.7404 7.88525C24.6334 7.88525 24.5308 7.92774 24.4551 8.00337L22.1227 10.3357L15.8746 3.9558L18.141 1.68935C18.1786 1.65191 18.2085 1.60742 18.2289 1.55844C18.2492 1.50946 18.2597 1.45693 18.2598 1.40388C18.2599 1.35083 18.2494 1.29828 18.2292 1.24926C18.2089 1.20023 18.1791 1.15569 18.1416 1.11817C18.1041 1.08066 18.0596 1.05091 18.0105 1.03063C17.9615 1.01036 17.909 0.999946 17.8559 1C17.8029 1.00005 17.7503 1.01057 17.7014 1.03095C17.6524 1.05133 17.6079 1.08116 17.5705 1.11875L14.4895 4.1997C14.2872 4.40192 14.1304 4.64492 14.0294 4.91251C13.9285 5.18011 13.8857 5.46615 13.904 5.75157H13.3639C12.9615 5.75173 12.5637 5.83668 12.1963 6.00089C11.8289 6.1651 11.5003 6.40487 11.2317 6.70459L11.1534 6.7922C10.4113 6.42046 9.59822 6.21214 8.76885 6.18129C8.86787 5.83533 8.8726 5.46918 8.78255 5.12077C8.6925 4.77236 8.51095 4.45436 8.2567 4.1997L5.17575 1.11875C5.10007 1.04317 4.99747 1.00072 4.8905 1.00075C4.78354 1.00079 4.68096 1.04329 4.60533 1.11893C4.52969 1.19456 4.48719 1.29714 4.48715 1.4041C4.48712 1.51107 4.52957 1.61367 4.60515 1.68935L6.90527 3.98946L0.657151 10.3694L-1.70887 8.00337C-1.78455 7.92778 -1.88715 7.88534 -1.99411 7.88537C-2.10108 7.8854 -2.20365 7.92791 -2.27929 8.00354C-2.35492 8.07918 -2.39743 8.18175 -2.39746 8.28872C-2.39749 8.39568 -2.35505 8.49828 -2.27946 8.57396L0.304234 11.1577C0.338328 11.2162 0.387059 11.265 0.445652 11.2991L0.801485 11.6549C1.05623 11.909 1.37422 12.0905 1.72257 12.1805C2.07093 12.2705 2.43702 12.2659 2.78299 12.1671C2.79313 12.4415 2.8228 12.7148 2.87176 12.985C2.68391 13.0713 2.51293 13.1904 2.36686 13.3367L1.48119 14.2224C1.23669 14.4669 1.07019 14.7784 1.00274 15.1175C0.935287 15.4566 0.969911 15.8081 1.10223 16.1276C1.23455 16.447 1.45863 16.7201 1.74613 16.9122C2.03363 17.1043 2.37163 17.2068 2.7174 17.2068C2.77182 17.2068 2.82581 17.2041 2.87935 17.1992C2.85673 17.4413 2.8849 17.6855 2.96205 17.916C3.03921 18.1466 3.16366 18.3586 3.32743 18.5383C3.4912 18.7181 3.69069 18.8616 3.91314 18.9598C4.13558 19.058 4.37608 19.1087 4.61924 19.1086C4.67366 19.1086 4.72765 19.1059 4.78119 19.101C4.75858 19.3431 4.78675 19.5873 4.86391 19.8179C4.94108 20.0485 5.06552 20.2604 5.22929 20.4401C5.39306 20.6199 5.59255 20.7634 5.81499 20.8616C6.03743 20.9599 6.27792 21.0105 6.52107 21.0105C6.57549 21.0105 6.62948 21.0077 6.68302 21.0029C6.65005 21.3607 6.72816 21.72 6.9067 22.0318C7.08524 22.3437 7.35555 22.5929 7.68082 22.7457C8.00609 22.8984 8.37053 22.9472 8.72452 22.8854C9.07851 22.8236 9.40485 22.6542 9.65912 22.4002L10.2416 21.8177L10.8242 22.4003C11.0687 22.6447 11.3802 22.8112 11.7193 22.8786C12.0584 22.946 12.4099 22.9114 12.7293 22.7791C13.0487 22.6468 13.3217 22.4227 13.5139 22.1353C13.706 21.8479 13.8086 21.5099 13.8087 21.1642C13.8087 21.11 13.8059 21.0562 13.8011 21.0029C13.8544 21.0078 13.9081 21.0105 13.9622 21.0105C14.4259 21.0104 14.8705 20.8262 15.1984 20.4984C15.5262 20.1705 15.7104 19.7258 15.7104 19.2622C15.7104 19.208 15.7077 19.1543 15.7029 19.1011C15.7561 19.1059 15.8098 19.1086 15.864 19.1086C16.3276 19.1086 16.7723 18.9244 17.1002 18.5965C17.428 18.2687 17.6122 17.824 17.6123 17.3604C17.6123 17.3062 17.6096 17.2525 17.6047 17.1993C17.658 17.2041 17.7117 17.2068 17.7658 17.2068C18.1116 17.2068 18.4496 17.1043 18.7371 16.9122C19.0246 16.7201 19.2487 16.4471 19.381 16.1276C19.5133 15.8081 19.548 15.4566 19.4805 15.1175C19.413 14.7784 19.2465 14.4669 19.002 14.2224L18.513 13.7334C19.0818 13.3007 19.5674 12.7685 19.9461 12.1625C20.2942 12.2649 20.6633 12.2719 21.015 12.1826C21.3666 12.0933 21.6877 11.911 21.9447 11.6549L25.0257 8.57396C25.1013 8.49829 25.1438 8.39567 25.1438 8.28867C25.1438 8.18166 25.1013 8.07904 25.0257 8.00337ZM1.37208 11.0843L1.22775 10.94L7.47587 4.56006L7.6861 4.77029C7.91276 4.99744 8.04006 5.30522 8.04006 5.6261C8.04006 5.94699 7.91276 6.25477 7.6861 6.48191L3.0837 11.0843C2.85656 11.311 2.54878 11.4383 2.22789 11.4383C1.907 11.4383 1.59922 11.311 1.37208 11.0843ZM2.7174 16.3999C2.53123 16.3999 2.34924 16.3447 2.19445 16.2413C2.03966 16.1378 1.91902 15.9908 1.84778 15.8188C1.77653 15.6468 1.75789 15.4575 1.7942 15.2749C1.83051 15.0923 1.92015 14.9246 2.05178 14.793L2.93745 13.9073C3.02483 13.8197 3.12861 13.7502 3.24286 13.7028C3.35711 13.6554 3.47959 13.6309 3.60329 13.6308C3.727 13.6308 3.8495 13.6551 3.9638 13.7024C4.07811 13.7497 4.18196 13.8191 4.26944 13.9065C4.35691 13.994 4.42629 14.0979 4.4736 14.2122C4.52091 14.3265 4.54523 14.449 4.54517 14.5727C4.5451 14.6964 4.52065 14.8189 4.47322 14.9331C4.4258 15.0474 4.35631 15.1511 4.26875 15.2385L3.38302 16.1242C3.29581 16.2119 3.19208 16.2814 3.07783 16.3287C2.96357 16.3761 2.84107 16.4003 2.7174 16.3999ZM4.61924 18.3018C4.43306 18.3017 4.25107 18.2465 4.09628 18.1431C3.94148 18.0396 3.82084 17.8926 3.74959 17.7206C3.67834 17.5486 3.65969 17.3593 3.696 17.1767C3.7323 16.9941 3.82194 16.8264 3.95356 16.6947L4.83929 15.8091C5.01593 15.6331 5.2552 15.5344 5.50457 15.5346C5.75394 15.5348 5.99303 15.634 6.16937 15.8103C6.3457 15.9866 6.44487 16.2257 6.4451 16.4751C6.44532 16.7244 6.34659 16.9637 6.17058 17.1404L5.28486 18.026C5.19765 18.1137 5.09392 18.1832 4.97966 18.2306C4.86541 18.2779 4.7429 18.3021 4.61924 18.3018ZM6.52107 20.2036C6.3974 20.2039 6.27489 20.1797 6.16064 20.1324C6.04639 20.0851 5.94266 20.0156 5.85545 19.9279C5.67918 19.7512 5.58018 19.5118 5.58017 19.2622C5.58016 19.0126 5.67914 18.7733 5.8554 18.5966L6.74112 17.7109C6.8285 17.6233 6.93228 17.5538 7.04654 17.5064C7.16079 17.4589 7.28328 17.4345 7.40699 17.4344C7.53071 17.4343 7.65322 17.4586 7.76753 17.506C7.88184 17.5533 7.9857 17.6227 8.07318 17.7101C8.16065 17.7976 8.23003 17.9015 8.27733 18.0158C8.32464 18.1301 8.34894 18.2526 8.34886 18.3763C8.34878 18.5001 8.32432 18.6225 8.27686 18.7368C8.22941 18.851 8.1599 18.9548 8.07231 19.0422L7.18669 19.9279C7.09948 20.0156 6.99575 20.0851 6.8815 20.1324C6.76725 20.1797 6.64474 20.2039 6.52107 20.2036ZM9.97415 20.944L9.08858 21.8297C8.91196 22.0058 8.67266 22.1046 8.42323 22.1044C8.1738 22.1043 7.93464 22.0051 7.75826 21.8287C7.58189 21.6524 7.48272 21.4132 7.48253 21.1638C7.48235 20.9143 7.58117 20.675 7.75728 20.4984L8.64291 19.6128C8.73026 19.5251 8.83404 19.4555 8.94832 19.408C9.0626 19.3605 9.18513 19.3359 9.30889 19.3358C9.43266 19.3357 9.55524 19.36 9.66961 19.4073C9.78397 19.4546 9.88789 19.524 9.97541 19.6115C10.0629 19.699 10.1323 19.803 10.1796 19.9173C10.2269 20.0317 10.2512 20.1543 10.2511 20.278C10.251 20.4018 10.2265 20.5243 10.1789 20.6386C10.1314 20.7529 10.0618 20.8567 9.97415 20.944ZM18.7072 15.4586C18.7072 15.6448 18.652 15.8268 18.5486 15.9816C18.4451 16.1364 18.2981 16.2571 18.1261 16.3283C17.9541 16.3995 17.7648 16.4182 17.5822 16.3818C17.3996 16.3455 17.2318 16.2558 17.1002 16.1241L14.2094 13.2334C14.172 13.1959 14.1275 13.1662 14.0785 13.1458C14.0296 13.1255 13.9771 13.1151 13.9241 13.1151C13.8711 13.1151 13.8186 13.1255 13.7696 13.1458C13.7206 13.166 13.6761 13.1958 13.6386 13.2332C13.6012 13.2707 13.5714 13.3152 13.5512 13.3642C13.5309 13.4132 13.5205 13.4657 13.5205 13.5187C13.5205 13.5717 13.5309 13.6241 13.5513 13.6731C13.5716 13.7221 13.6013 13.7665 13.6388 13.804L16.5296 16.6947C16.6173 16.7821 16.6869 16.8859 16.7344 17.0002C16.7819 17.1144 16.8065 17.237 16.8066 17.3607C16.8067 17.4845 16.7824 17.6071 16.7351 17.7214C16.6878 17.8358 16.6184 17.9397 16.5309 18.0272C16.4433 18.1148 16.3394 18.1842 16.2251 18.2315C16.1107 18.2788 15.9881 18.3031 15.8644 18.3029C15.7406 18.3028 15.6181 18.2783 15.5038 18.2308C15.3895 18.1833 15.2857 18.1137 15.1984 18.026L12.3076 15.1352C12.232 15.0595 12.1293 15.017 12.0223 15.017C11.9153 15.017 11.8127 15.0595 11.737 15.1352C11.6614 15.2109 11.6189 15.3135 11.6189 15.4205C11.6189 15.5275 11.6614 15.6301 11.737 15.7058L14.6278 18.5966C14.7153 18.6839 14.7848 18.7877 14.8323 18.902C14.8797 19.0162 14.9041 19.1387 14.9042 19.2624C14.9043 19.3861 14.88 19.5086 14.8327 19.6229C14.7854 19.7372 14.716 19.841 14.6285 19.9285C14.541 20.016 14.4372 20.0853 14.3229 20.1327C14.2086 20.18 14.0861 20.2043 13.9624 20.2042C13.8387 20.2042 13.7162 20.1797 13.602 20.1323C13.4877 20.0849 13.384 20.0154 13.2966 19.9278L10.4058 17.037C10.3684 16.9995 10.3239 16.9697 10.2749 16.9493C10.226 16.929 10.1735 16.9185 10.1204 16.9184C10.0674 16.9184 10.0149 16.9288 9.9659 16.9491C9.9169 16.9693 9.87237 16.999 9.83487 17.0365C9.79736 17.074 9.76761 17.1185 9.74732 17.1675C9.72702 17.2165 9.71658 17.269 9.71659 17.322C9.71661 17.375 9.72707 17.4275 9.74739 17.4765C9.7677 17.5255 9.79747 17.57 9.835 17.6075L12.7258 20.4983C12.8132 20.5856 12.8826 20.6894 12.9299 20.8036C12.9772 20.9178 13.0016 21.0402 13.0016 21.1638C13.0016 21.2874 12.9773 21.4098 12.93 21.5241C12.8827 21.6383 12.8134 21.742 12.726 21.8295C12.6386 21.9169 12.5349 21.9863 12.4207 22.0336C12.3065 22.0809 12.1841 22.1053 12.0605 22.1053C11.9368 22.1053 11.8144 22.081 11.7002 22.0337C11.586 21.9864 11.4822 21.9171 11.3948 21.8297L10.783 21.2179C10.9514 20.9536 11.0456 20.649 11.0559 20.3358C11.0661 20.0226 10.992 19.7124 10.8413 19.4376C10.6906 19.1629 10.4688 18.9337 10.1991 18.774C9.92949 18.6144 9.62189 18.5302 9.30853 18.5301C9.25439 18.5301 9.20069 18.5328 9.14744 18.5377C9.15227 18.4844 9.15498 18.4307 9.15498 18.3766C9.15494 17.9129 8.97075 17.4683 8.6429 17.1404C8.31505 16.8126 7.8704 16.6283 7.40674 16.6283C7.35232 16.6283 7.29832 16.631 7.24479 16.6359C7.26876 16.3802 7.23602 16.1224 7.1489 15.8808C7.06179 15.6392 6.92244 15.4198 6.7408 15.2383C6.55915 15.0567 6.33969 14.9175 6.09806 14.8305C5.85643 14.7435 5.59857 14.7109 5.34289 14.735C5.3653 14.4979 5.33893 14.2587 5.26541 14.0322C5.19189 13.8057 5.07278 13.5966 4.91541 13.4178C4.75803 13.2391 4.56573 13.0945 4.35035 12.9928C4.13497 12.8912 3.90106 12.8348 3.66304 12.827C3.59777 12.4598 3.57394 12.0866 3.59199 11.7141C3.61302 11.6948 3.63392 11.6753 3.65429 11.6549L8.2567 7.05251C8.27709 7.03211 8.29663 7.01119 8.31596 6.99015C8.39487 6.98644 8.47475 6.9839 8.55602 6.9839C9.2579 6.98426 9.95182 7.13251 10.5926 7.41899L8.04127 10.2706C7.82774 10.5094 7.71372 10.8209 7.72258 11.1411C7.73145 11.4614 7.86255 11.7661 8.08896 11.9927C8.51864 12.4214 9.10081 12.6621 9.70775 12.6621C10.3147 12.6621 10.8968 12.4213 11.3265 11.9926L13.4785 9.84012L14.7069 11.0684C15.6724 12.0338 16.6378 12.9992 17.603 13.9647L17.6042 13.9657L18.4315 14.793C18.5192 14.8802 18.5887 14.9839 18.636 15.0982C18.6834 15.2124 18.7076 15.3349 18.7072 15.4586ZM18.8372 12.3181C18.5716 12.6327 18.2694 12.9145 17.937 13.1575C17.0506 12.2707 16.164 11.3841 15.2774 10.4978L13.7638 8.98423C13.6881 8.90858 13.5855 8.86608 13.4785 8.86609C13.3715 8.8661 13.2689 8.90861 13.1932 8.98428L10.756 11.4221C10.4777 11.6997 10.1008 11.8556 9.70774 11.8556C9.31472 11.8556 8.93774 11.6997 8.6595 11.4221C8.57884 11.3413 8.53215 11.2328 8.52901 11.1187C8.52588 11.0046 8.56654 10.8936 8.64264 10.8086L11.833 7.24272C12.0258 7.02752 12.2618 6.85535 12.5256 6.73745C12.7893 6.61955 13.075 6.55856 13.3639 6.55845H14.127C14.2219 6.7407 14.3441 6.90732 14.4895 7.05251L19.0919 11.6549C19.1367 11.6997 19.1833 11.7416 19.2311 11.7813C19.1116 11.9686 18.98 12.1479 18.8372 12.3181ZM21.3741 11.0843C21.147 11.311 20.8392 11.4383 20.5183 11.4383C20.1974 11.4383 19.8896 11.311 19.6625 11.0843L15.0601 6.48191C14.8334 6.25477 14.7061 5.94699 14.7061 5.6261C14.7061 5.30522 14.8334 4.99744 15.0601 4.77029L15.304 4.52641L21.5521 10.9063L21.3741 11.0843Z" fill="#FC7901"/>
</g>
<defs>
<clipPath id="clip0_1_11983">
<rect width="24" height="24" fill="white"/>
</clipPath>
</defs>
</svg>
