<svg width="123" height="123" viewBox="0 0 123 123" fill="none" xmlns="http://www.w3.org/2000/svg">
<path opacity="0.2" d="M61.0581 106.851C86.3492 106.851 106.852 86.349 106.852 61.058C106.852 35.767 86.3492 15.2645 61.0581 15.2645C35.7671 15.2645 15.2646 35.767 15.2646 61.058C15.2646 86.349 35.7671 106.851 61.0581 106.851Z" fill="#2DB324"/>
<path d="M82.0467 49.6096L54.0459 76.3225L40.0693 62.9661" stroke="#2DB324" stroke-width="5.55072" stroke-linecap="round" stroke-linejoin="round"/>
<path d="M61.0581 106.851C86.3492 106.851 106.852 86.349 106.852 61.058C106.852 35.767 86.3492 15.2645 61.0581 15.2645C35.7671 15.2645 15.2646 35.767 15.2646 61.058C15.2646 86.349 35.7671 106.851 61.0581 106.851Z" stroke="#2DB324" stroke-width="5.55072" stroke-linecap="round" stroke-linejoin="round"/>
</svg>
