<svg width="72" height="72" viewBox="0 0 72 72" fill="none" xmlns="http://www.w3.org/2000/svg">
<path d="M7.33662 34.281C7.33662 35.9205 6.54224 37.0309 4.53049 37.0309H3.89481V31.8095C4.1208 31.7967 4.33185 31.7967 4.53049 31.7967C6.43537 31.7966 7.33662 32.6952 7.33662 34.281ZM5.27161 39.3043C8.87121 39.3043 11.1471 37.4533 11.1471 34.2287C11.1469 30.6856 8.71216 29.417 4.74226 29.417C3.20695 29.417 1.35425 29.5224 0.03125 29.681V42.3187H3.89499V39.3043H5.27161ZM57.0397 34.281C57.0397 35.9205 56.2464 37.0309 54.2341 37.0309H53.6005V31.8095C53.8246 31.7967 54.036 31.7967 54.2341 31.7967C56.1391 31.7966 57.0397 32.6952 57.0397 34.281ZM54.977 39.3043C58.5737 39.3043 60.8509 37.4533 60.8509 34.2287C60.8509 30.6856 58.4164 29.417 54.4462 29.417C52.9112 29.417 51.0575 29.5224 49.7343 29.681V42.3187H53.6V39.3043H54.977ZM65.8787 32.9062C65.8787 32.2191 66.5677 31.9014 67.6782 31.9014C68.8961 31.9014 70.2203 32.166 71.1194 32.5375L70.8022 29.7871C69.7959 29.5756 68.8961 29.417 67.2557 29.417C64.1324 29.417 62.0157 30.6468 62.0157 33.2245C62.0157 37.6648 68.051 36.7667 68.051 38.8287C68.051 39.6211 67.4678 40.0438 66.0379 40.0438C64.7695 40.0438 62.8095 39.6211 61.6452 39.0398L62.0699 41.9488C63.2333 42.3717 64.8213 42.5825 66.0921 42.5825C69.32 42.5825 71.9672 41.5247 71.9672 38.3518C71.9672 34.1233 65.8787 34.9157 65.8787 32.9062ZM46.8242 29.681H42.9604V42.3187H46.8242V29.681ZM31.1556 29.681H27.2915V42.3187H31.1556V29.681ZM37.878 39.7799V29.681H34.0139V42.3187H41.0017L41.5834 39.7799H37.878ZM24.4334 29.681H20.5693V34.7041H16.5463V29.681H12.6815V42.3187H16.5462V37.3478H20.5691V42.3187H24.4332L24.4334 29.681Z" fill="white"/>
</svg>
