<svg width="72" height="72" viewBox="0 0 72 72" fill="none" xmlns="http://www.w3.org/2000/svg">
<path fill-rule="evenodd" clip-rule="evenodd" d="M6.44462 41.2448H3.66706V33.283H0.455078V30.8931H9.82768V33.283H6.44462V41.2448ZM11.1418 33.6247C11.5609 31.1882 13.7333 30.8311 15.8131 30.8311C19.3826 30.8311 20.6395 31.7156 20.6395 35.4558C20.6395 39.289 20.5465 41.3221 15.8908 41.3221C14.0441 41.3221 11.8403 41.1827 11.2194 39.0566C11.0177 38.3581 11.0021 37.629 11.0021 36.8995V36.1386C11.0021 35.3161 11.0021 34.4473 11.1418 33.6247ZM13.842 36.7127C13.842 38.1717 13.873 38.9475 15.5957 38.9475C17.4891 38.9475 17.7839 38.4818 17.7839 36.7127C17.7839 36.2163 17.7995 35.7042 17.7995 35.2074C17.7995 33.8261 17.5821 33.2056 16.0925 33.2056C13.9201 33.2056 13.8887 33.423 13.8424 36.0919V36.7127H13.842ZM28.7544 34.1212C28.7544 33.0656 28.3816 32.9262 27.3888 32.9262H27.1094C26.3799 32.9262 25.6041 32.9572 25.6041 33.8728C25.6041 34.5093 25.7905 34.804 26.4576 34.8507C28.8627 35.0524 31.703 34.5713 31.703 37.908C31.703 38.7929 31.703 39.9101 30.9735 40.5309C30.1197 41.2448 28.9404 41.3068 27.8542 41.3068H27.1714C24.3158 41.3068 22.8258 41.1827 22.8258 37.8923H25.464C25.464 38.6681 25.6504 39.1339 26.5192 39.1339H27.7141C28.4126 39.1339 28.9711 39.0406 28.9711 38.1093C28.9711 37.1938 28.4279 37.1938 27.6517 37.1475C24.6568 36.9458 22.8411 37.2248 22.8411 33.7798C22.8411 31.9793 23.5549 31.0328 25.4016 30.8931C26.0067 30.8464 26.6118 30.8154 27.2173 30.8154C29.6229 30.8154 31.4076 30.8621 31.4076 33.7954C31.4076 33.9041 31.3919 34.0128 31.3919 34.1215H28.7544V34.1212ZM43.0266 41.2448H40.2483V37.1785H36.6478V41.2448H33.8699V30.8931H36.6478V34.804H40.2483V30.8931H43.0266V41.2448ZM48.4506 41.2448H45.673V30.8931H48.4506V41.2448ZM51.115 30.8931H56.7486C58.6263 30.8931 59.8369 31.4052 59.8369 33.5314C59.8369 34.7263 59.7282 35.6885 58.2233 35.9369V36.0295C59.6203 36.1539 60.0076 36.8987 60.0076 38.2644C60.0076 40.5922 59.2322 41.2444 56.7953 41.2444H51.115V30.8931ZM55.6623 35.0367C56.4232 35.0057 57.09 35.0991 57.09 34.1522C57.09 33.4074 56.8886 33.1743 56.1438 33.1743H53.8933V35.0367H55.6623ZM55.7404 38.9632C56.6092 38.9632 57.2454 38.9475 57.2454 37.939C57.2454 36.9768 56.7953 36.9458 55.9264 36.9458H53.8933V38.9632H55.7404ZM68.5715 41.2448H71.3961L68.245 30.8931H64.0399L60.9355 41.2448H63.8225L64.4141 39.1653H67.9713L68.5715 41.2448ZM64.9845 37.1632L66.1817 32.9572L67.3949 37.1632H64.9845Z" fill="white"/>
</svg>
